Coordinates
version=1
nRows=5
nColumns=46
inDegrees=yes

Units are S.I. units (second, meters, Newtons, ...)
Angles are in degrees.

endheader
time	pelvis_tilt	pelvis_list	pelvis_rotation	pelvis_tx	pelvis_ty	pelvis_tz	bb_angle	bb_tx	bb_ty	bb_tz	hip_flexion_r	hip_adduction_r	hip_rotation_r	knee_angle_r	knee_angle_r_beta	ankle_angle_r	subtalar_angle_r	mtp_angle_r	crank_angle_r	hip_flexion_l	hip_adduction_l	hip_rotation_l	knee_angle_l	knee_angle_l_beta	ankle_angle_l	subtalar_angle_l	mtp_angle_l	crank_angle_l	lumbar_extension	lumbar_bending	lumbar_rotation	arm_flex_r	arm_add_r	arm_rot_r	elbow_flex_r	pro_sup_r	wrist_flex_r	wrist_dev_r	arm_flex_l	arm_add_l	arm_rot_l	elbow_flex_l	pro_sup_l	wrist_flex_l	wrist_dev_l
      2.50000000	    -13.99872269	     -3.64117669	     -5.85807012	      0.11215237	      1.15163331	     -0.25561895	      0.00000000	      0.50000000	      0.00000000	      0.25000000	     83.62706396	      3.47200466	     -0.40811709	     88.84771030	      1.55068508	     17.36929856	     -2.97561518	      0.00000000	      0.00000000	     52.29428511	    -11.09732476	     -1.03259611	     70.31522089	      1.22723212	    -11.02277853	    -14.20514133	      0.00000000	      0.00000000	    -65.77663402	     10.51092156	      9.17832369	     89.86940619	      6.61081138	     25.93173454	     60.73750904	     18.48083991	      0.00000000	      0.00000000	     89.62778459	    -24.76755333	     30.97365808	     53.67799153	     31.24105818	      0.00000000	      0.00000000
      2.50500000	    -14.31462467	     -3.67980323	     -5.68971249	      0.11214689	      1.15195979	     -0.25596574	      0.00000000	      0.50000000	      0.00000000	      0.25000000	     83.12749103	      3.32233738	     -0.41172521	     87.38597137	      1.52517292	     17.48646760	     -2.66207110	      0.00000000	      0.00000000	     52.90152875	    -11.02093896	     -0.84088254	     71.27088712	      1.24391164	    -10.46898381	    -14.33765706	      0.00000000	      0.00000000	    -65.91797997	     10.76226972	      9.08401595	     89.86998592	      6.68392911	     25.96386171	     61.18877906	     20.08345835	      0.00000000	      0.00000000	     89.61124205	    -25.08579812	     30.15929234	     54.30615516	     31.83826550	      0.00000000	      0.00000000
      2.51000000	    -14.70685752	     -3.64154140	     -5.51221782	      0.11217513	      1.15206182	     -0.25631527	      0.00000000	      0.50000000	      0.00000000	      0.25000000	     82.71204383	      3.13873629	     -0.36532792	     85.93314605	      1.49981634	     17.60414834	     -2.30777994	      0.00000000	      0.00000000	     53.60120424	    -10.83398240	     -0.63756517	     72.24439520	      1.26090256	     -9.82496848	    -14.47244721	      0.00000000	      0.00000000	    -65.91783272	     10.95645135	      8.85014270	     89.86957045	      6.59532006	     26.07785486	     61.77400201	     21.01004906	      0.00000000	      0.00000000	     89.60271896	    -25.92388116	     30.26185377	     55.26877618	     32.29827990	      0.00000000	      0.00000000
      2.51500000	    -15.04678178	     -3.57603281	     -5.34476982	      0.11226947	      1.15226425	     -0.25664563	      0.00000000	      0.50000000	      0.00000000	      0.25000000	     82.21017538	      2.94491307	     -0.33924073	     84.46798648	      1.47424448	     17.75313818	     -2.03782145	      0.00000000	      0.00000000	     54.26220026	    -10.63435668	     -0.47788725	     73.22196139	      1.27796431	     -9.28399028	    -14.68720081	      0.00000000	      0.00000000	    -65.96810040	     11.11493095	      8.63620841	     89.86993050	      6.57736360	     26.10269018	     62.10761759	     22.85913671	      0.00000000	      0.00000000	     89.57825141	    -26.25409439	     29.42254491	     55.90677628	     33.23750729	      0.00000000	      0.00000000
      2.52000000	    -15.36221146	     -3.44820063	     -5.13427290	      0.11223021	      1.15248115	     -0.25686321	      0.00000000	      0.50000000	      0.00000000	      0.25000000	     81.67871424	      2.71477779	     -0.26722230	     82.95309516	      1.44780464	     17.73764129	     -1.90391521	      0.00000000	      0.00000000	     54.93462869	    -10.35003393	     -0.30049943	     74.20645412	      1.29514695	     -8.81230186	    -14.85780891	      0.00000000	      0.00000000	    -66.00007792	     11.21789364	      8.27598667	     89.87047303	      6.48912577	     26.13404647	     62.34817488	     25.13875510	      0.00000000	      0.00000000	     89.56025255	    -26.79380807	     28.86250906	     56.61970400	     34.51595491	      0.00000000	      0.00000000
